# xmcd
#
# Track frame offsets:
# 150
# 13450
# 27492
# 43313
# 54720
# 67973
# 80608
# 96580
# 112044
# 126400
# 136510
# 147357
#
# Disc length: 2208 seconds
#
#
# Revision: 0
# Processed by: cddbd v1.5.1PL2 Copyright (c) Steve Scherf et al.
# Submitted via: FreeRIP 2.944 
#
DISCID=b8089e0c
DTITLE=Sammy Kershaw - The Hits Chapter 1
DYEAR=1995
DGENRE=Country
TTITLE0=Cadillac Style
TTITLE1=Don't Go Near The Water
TTITLE2=Yard Sale
TTITLE3=Anywhere But Here
TTITLE4=She Don't Know She's Beautiful
TTITLE5=Haunted Heart
TTITLE6=Queen of My Double Wild Trailer
TTITLE7=I Can't Reach Her Anymore
TTITLE8=National Working Women's Holiday
TTITLE9=Third Rate Romance
TTITLE10=Your Tattoo
TTITLE11=Still Lovin' You
EXTD=
EXTT0=
EXTT1=
EXTT2=
EXTT3=
EXTT4=
EXTT5=
EXTT6=
EXTT7=
EXTT8=
EXTT9=
EXTT10=
EXTT11=
PLAYORDER=
